<svg xmlns="http://www.w3.org/2000/svg" viewBox="0 0 206.18 21.18"><path d="M10.09 4.24c.9 1.8 1.8 3.5 3.8 4.4a31 31 0 0 0 7.1 2.3 4.82 4.82 0 0 0 1.2 0c.4 0 .4-.2.4-1-.5-.2-1-.3-1.5-.5s-.8-.7-1.3-1a14.93 14.93 0 0 1-5.3-5c-.3-.4-.6-.7-.9-1.1a2.47 2.47 0 0 0-1.6-.8c-.9-.2-2.3.7-2 1.9.1.4.01.7.1.8ZM12.26 3l.14.1A12.09 12.09 0 0 1 14 4.74c1.1 1.2 1.9 2.7 3.2 3.7a6.52 6.52 0 0 1-3.8-1.6 5.73 5.73 0 0 1-2.2-3.5.76.76 0 0 1 1.06-.34Zm5.24 9a1.79 1.79 0 0 0-.7-.5c-1.7.4-3.3.8-4.9 1.1a17.8 17.8 0 0 0-4.4 2.1A3.22 3.22 0 0 0 6 16.84a2 2 0 0 0 .3 1.7 1.23 1.23 0 0 0 1.3.5 2 2 0 0 0 1.1-.3 13.77 13.77 0 0 0 4-2.8 7.52 7.52 0 0 1 1.6-1.5 5.61 5.61 0 0 1 2.5-1.4c.1 0 .2-.1.4-.2a.66.66 0 0 0 .3-.84ZM7.3 17.84c0-.4-.1-.7 0-.9a4.28 4.28 0 0 1 .9-1.3 11.57 11.57 0 0 1 4.5-2.1c.1 0 .2.1.3.1a9.83 9.83 0 0 1-5.7 4.2Zm.09-6.6a33.89 33.89 0 0 1-4.5.2 3 3 0 0 1-2.8-2 1.26 1.26 0 0 1 .6-1.6 6.69 6.69 0 0 1 1.9-.5 8.22 8.22 0 0 1 2.7.2 27.92 27.92 0 0 1 3.9 1c1 .3 1.9.6 2.9.9a.89.89 0 0 1 .6 1.1c-.95.08-4.5.7-5.3.7Zm77.2-1H83l-42.23-.1h-1.7a9.64 9.64 0 0 1-1.7 0 15.16 15.16 0 0 1-2.1-.3 32 32 0 0 1-3.3-.7c-2.3-.9-4.4-2.2-5.4-4.6a9.66 9.66 0 0 0-2.4-3.3c-.3-.3-.6-.5-.9-.8A2.13 2.13 0 0 0 21 .24c-.4.2-.8.5-1.4.8a5.73 5.73 0 0 0 .6 4.8c1.5 2.6 3.9 4 6.8 4.9a.6.6 0 0 1 .4.1c.1 0 .3.1.4.1 0 .3-.2.4-.5.5a46.07 46.07 0 0 0-5.3 1.5 8.75 8.75 0 0 0-3.2 2.2 7.24 7.24 0 0 0-1.1 1.9 2.55 2.55 0 0 0 .7 3.1 3.53 3.53 0 0 0 3.8.8 4.52 4.52 0 0 0 1.7-1.1 38.77 38.77 0 0 0 2.6-3.1 10.56 10.56 0 0 1 4.8-3.6 20.25 20.25 0 0 1 3.3-.9 47.26 47.26 0 0 1 9.9-.8c3.3 0 40.1-.2 40.1-.2h121.58v-1Zm-55.4 2.5a8.46 8.46 0 0 0-3 2.6c-.8 1.2-1.8 2.2-2.7 3.3a3.07 3.07 0 0 1-2.2 1.2 2.31 2.31 0 0 1-2.3-1 2.12 2.12 0 0 1 .1-2.3c.1-.1.1-.2.2-.3a10.59 10.59 0 0 1 2.9-2.2 27.39 27.39 0 0 1 8.1-1.9 10.9 10.9 0 0 0-1.1.6Zm1.1-2.6a20.91 20.91 0 0 1-3.4-.8 10.6 10.6 0 0 1-5.8-4.2 3.84 3.84 0 0 1-.7-3.3 2.45 2.45 0 0 1 1.6-.6 2.48 2.48 0 0 1 1.4.8 8 8 0 0 1 2 2.8c.8 1.6 1.7 3.1 3.5 3.8a10.72 10.72 0 0 1 1.9 1.3c-.3.06-.4.2-.5.2Z"/></svg>