<svg xmlns="http://www.w3.org/2000/svg" xmlns:xlink="http://www.w3.org/1999/xlink"><symbol id="clock" viewBox="0 0 60 60">
<g>
	<path d="M30,0C13.458,0,0,13.458,0,30s13.458,30,30,30s30-13.458,30-30S46.542,0,30,0z M30,58C14.561,58,2,45.439,2,30
		S14.561,2,30,2s28,12.561,28,28S45.439,58,30,58z"/>
	<path d="M31,26.021V15.879c0-0.553-0.448-1-1-1s-1,0.447-1,1v10.142c-1.399,0.364-2.494,1.459-2.858,2.858H19c-0.552,0-1,0.447-1,1
		s0.448,1,1,1h7.142c0.447,1.72,2,3,3.858,3c2.206,0,4-1.794,4-4C34,28.02,32.72,26.468,31,26.021z M30,31.879c-1.103,0-2-0.897-2-2
		s0.897-2,2-2s2,0.897,2,2S31.103,31.879,30,31.879z"/>
	<path d="M30,9.879c0.552,0,1-0.447,1-1v-1c0-0.553-0.448-1-1-1s-1,0.447-1,1v1C29,9.432,29.448,9.879,30,9.879z"/>
	<path d="M30,49.879c-0.552,0-1,0.447-1,1v1c0,0.553,0.448,1,1,1s1-0.447,1-1v-1C31,50.326,30.552,49.879,30,49.879z"/>
	<path d="M52,28.879h-1c-0.552,0-1,0.447-1,1s0.448,1,1,1h1c0.552,0,1-0.447,1-1S52.552,28.879,52,28.879z"/>
	<path d="M9,28.879H8c-0.552,0-1,0.447-1,1s0.448,1,1,1h1c0.552,0,1-0.447,1-1S9.552,28.879,9,28.879z"/>
	<path d="M44.849,13.615l-0.707,0.707c-0.391,0.391-0.391,1.023,0,1.414c0.195,0.195,0.451,0.293,0.707,0.293
		s0.512-0.098,0.707-0.293l0.707-0.707c0.391-0.391,0.391-1.023,0-1.414S45.24,13.225,44.849,13.615z"/>
	<path d="M14.444,44.021l-0.707,0.707c-0.391,0.391-0.391,1.023,0,1.414c0.195,0.195,0.451,0.293,0.707,0.293
		s0.512-0.098,0.707-0.293l0.707-0.707c0.391-0.391,0.391-1.023,0-1.414S14.834,43.631,14.444,44.021z"/>
	<path d="M45.556,44.021c-0.391-0.391-1.023-0.391-1.414,0s-0.391,1.023,0,1.414l0.707,0.707c0.195,0.195,0.451,0.293,0.707,0.293
		s0.512-0.098,0.707-0.293c0.391-0.391,0.391-1.023,0-1.414L45.556,44.021z"/>
	<path d="M15.151,13.615c-0.391-0.391-1.023-0.391-1.414,0s-0.391,1.023,0,1.414l0.707,0.707c0.195,0.195,0.451,0.293,0.707,0.293
		s0.512-0.098,0.707-0.293c0.391-0.391,0.391-1.023,0-1.414L15.151,13.615z"/>
</g>
</symbol><symbol id="herb" viewBox="0 0 206.18 21.18"><path d="M10.09,4.24c.9,1.8,1.8,3.5,3.8,4.4a31,31,0,0,0,7.1,2.3,4.82,4.82,0,0,0,1.2,0c.4,0,.4-.2.4-1-.5-.2-1-.3-1.5-.5s-.8-.7-1.3-1a14.93,14.93,0,0,1-5.3-5c-.3-.4-.6-.7-.9-1.1a2.47,2.47,0,0,0-1.6-.8c-.9-.2-2.3.7-2,1.9C10.09,3.84,10,4.14,10.09,4.24ZM12.26,3l.14.1A12.09,12.09,0,0,1,14,4.74c1.1,1.2,1.9,2.7,3.2,3.7a6.52,6.52,0,0,1-3.8-1.6,5.73,5.73,0,0,1-2.2-3.5A.76.76,0,0,1,12.26,3ZM17.5,12v0a1.79,1.79,0,0,0-.7-.5c-1.7.4-3.3.8-4.9,1.1a17.8,17.8,0,0,0-4.4,2.1A3.22,3.22,0,0,0,6,16.84a2,2,0,0,0,.3,1.7,1.23,1.23,0,0,0,1.3.5,2,2,0,0,0,1.1-.3,13.77,13.77,0,0,0,4-2.8,7.52,7.52,0,0,1,1.6-1.5,5.61,5.61,0,0,1,2.5-1.4c.1,0,.2-.1.4-.2A.66.66,0,0,0,17.5,12ZM7.3,17.84h0c0-.4-.1-.7,0-.9a4.28,4.28,0,0,1,.9-1.3,11.57,11.57,0,0,1,4.5-2.1c.1,0,.2.1.3.1A9.83,9.83,0,0,1,7.3,17.84Zm.09-6.6a33.89,33.89,0,0,1-4.5.2,3,3,0,0,1-2.8-2,1.26,1.26,0,0,1,.6-1.6,6.69,6.69,0,0,1,1.9-.5,8.22,8.22,0,0,1,2.7.2,27.92,27.92,0,0,1,3.9,1c1,.3,1.9.6,2.9.9a.89.89,0,0,1,.6,1.1h0C11.74,10.62,8.19,11.24,7.39,11.24Zm77.2-1H83l-42.23-.1h-1.7a9.64,9.64,0,0,1-1.7,0,15.16,15.16,0,0,1-2.1-.3,32,32,0,0,1-3.3-.7c-2.3-.9-4.4-2.2-5.4-4.6a9.66,9.66,0,0,0-2.4-3.3c-.3-.3-.6-.5-.9-.8A2.13,2.13,0,0,0,21,.24c-.4.2-.8.5-1.4.8a5.73,5.73,0,0,0,.6,4.8c1.5,2.6,3.9,4,6.8,4.9a.6.6,0,0,1,.4.1c.1,0,.3.1.4.1,0,.3-.2.4-.5.5a46.07,46.07,0,0,0-5.3,1.5,8.75,8.75,0,0,0-3.2,2.2,7.24,7.24,0,0,0-1.1,1.9,2.55,2.55,0,0,0,.7,3.1,3.53,3.53,0,0,0,3.8.8,4.52,4.52,0,0,0,1.7-1.1,38.77,38.77,0,0,0,2.6-3.1,10.56,10.56,0,0,1,4.8-3.6,20.25,20.25,0,0,1,3.3-.9,47.26,47.26,0,0,1,9.9-.8c3.3,0,40.1-.2,40.1-.2H206.18v-1Zm-55.4,2.5a8.46,8.46,0,0,0-3,2.6c-.8,1.2-1.8,2.2-2.7,3.3a3.07,3.07,0,0,1-2.2,1.2,2.31,2.31,0,0,1-2.3-1,2.12,2.12,0,0,1,.1-2.3c.1-.1.1-.2.2-.3a10.59,10.59,0,0,1,2.9-2.2,27.39,27.39,0,0,1,8.1-1.9A10.9,10.9,0,0,0,29.19,12.74Zm1.1-2.6a20.91,20.91,0,0,1-3.4-.8,10.6,10.6,0,0,1-5.8-4.2,3.84,3.84,0,0,1-.7-3.3,2.45,2.45,0,0,1,1.6-.6,2.48,2.48,0,0,1,1.4.8,8,8,0,0,1,2,2.8c.8,1.6,1.7,3.1,3.5,3.8a10.72,10.72,0,0,1,1.9,1.3C30.49,10,30.39,10.14,30.29,10.14Z"/></symbol></svg>